<svg width="20" height="20" viewBox="0 0 20 20" fill="none" xmlns="http://www.w3.org/2000/svg">
<path d="M0.999998 10C0.999998 14.9706 5.0294 19 10 19C14.9706 19 19 14.9706 19 10C19 5.02944 14.9706 1 10 1C5.0294 1 0.999998 5.02944 0.999998 10Z" fill="#FECE06"/>
<path d="M8.5688 5.38234C8.9224 4.95806 9.553 4.90074 9.9772 5.2543C10.4015 5.60787 10.4588 6.23843 10.1053 6.66271L8.5688 5.38234ZM6.0225 10L5.2542 10.6402C4.9452 10.2694 4.9452 9.73069 5.2542 9.35984L6.0225 10ZM10.1053 13.3373C10.4588 13.7616 10.4015 14.3922 9.9772 14.7458C9.553 15.0993 8.9224 15.042 8.5688 14.6177L10.1053 13.3373ZM13.9775 9.00003C14.5298 9.00003 14.9775 9.44774 14.9775 10C14.9775 10.5523 14.5298 11 13.9775 11V9.00003ZM10.1053 6.66271L6.7907 10.6402L5.2542 9.35984L8.5688 5.38234L10.1053 6.66271ZM6.7907 9.35984L10.1053 13.3373L8.5688 14.6177L5.2542 10.6402L6.7907 9.35984ZM6.0225 9.00003H13.9775V11H6.0225V9.00003ZM4.3431 4.34315C1.219 7.46734 1.219 12.5327 4.3431 15.6569L2.9289 17.0711C-0.976299 13.1658 -0.976299 6.83418 2.9289 2.92893L4.3431 4.34315ZM4.3431 15.6569C7.4673 18.781 12.5327 18.781 15.6568 15.6569L17.0711 17.0711C13.1658 20.9763 6.8342 20.9763 2.9289 17.0711L4.3431 15.6569ZM15.6568 15.6569C18.781 12.5327 18.781 7.46734 15.6568 4.34315L17.0711 2.92893C20.9763 6.83418 20.9763 13.1658 17.0711 17.0711L15.6568 15.6569ZM15.6568 4.34315C12.5327 1.21895 7.4673 1.21895 4.3431 4.34315L2.9289 2.92893C6.8342 -0.97631 13.1658 -0.97631 17.0711 2.92893L15.6568 4.34315Z" fill="black"/>
</svg>
