<svg width="20" height="20" viewBox="0 0 20 20" fill="none" xmlns="http://www.w3.org/2000/svg">
<path d="M19 10C19 14.9706 14.9706 19 10 19C5.02944 19 0.999998 14.9706 0.999998 10C0.999998 5.02944 5.02944 1 10 1C14.9706 1 19 5.02944 19 10Z" fill="#FECE06"/>
<path d="M11.4312 5.38234C11.0776 4.95806 10.447 4.90074 10.0228 5.2543C9.59849 5.60787 9.54116 6.23843 9.89473 6.66271L11.4312 5.38234ZM13.9775 10L14.7458 10.6402C15.0548 10.2694 15.0548 9.73069 14.7458 9.35984L13.9775 10ZM9.89472 13.3373C9.54116 13.7616 9.59848 14.3922 10.0228 14.7458C10.447 15.0993 11.0776 15.042 11.4312 14.6177L9.89472 13.3373ZM6.02253 9.00003C5.47024 9.00003 5.02253 9.44774 5.02253 10C5.02253 10.5523 5.47024 11 6.02253 11L6.02253 9.00003ZM9.89473 6.66271L13.2093 10.6402L14.7458 9.35984L11.4312 5.38234L9.89473 6.66271ZM13.2093 9.35984L9.89472 13.3373L11.4312 14.6177L14.7458 10.6402L13.2093 9.35984ZM13.9775 9.00003L6.02253 9.00003L6.02253 11L13.9775 11L13.9775 9.00003ZM15.6569 4.34315C18.781 7.46734 18.781 12.5327 15.6569 15.6569L17.0711 17.0711C20.9763 13.1658 20.9763 6.83418 17.0711 2.92893L15.6569 4.34315ZM15.6569 15.6569C12.5327 18.781 7.46734 18.781 4.34315 15.6569L2.92893 17.0711C6.83418 20.9763 13.1658 20.9763 17.0711 17.0711L15.6569 15.6569ZM4.34315 15.6569C1.21895 12.5327 1.21895 7.46734 4.34315 4.34315L2.92893 2.92893C-0.976311 6.83418 -0.976311 13.1658 2.92893 17.0711L4.34315 15.6569ZM4.34315 4.34315C7.46734 1.21895 12.5327 1.21895 15.6569 4.34315L17.0711 2.92893C13.1658 -0.976311 6.83418 -0.976311 2.92893 2.92893L4.34315 4.34315Z" fill="black"/>
</svg>
