<svg width="15" height="16" viewBox="0 0 15 16" fill="none" xmlns="http://www.w3.org/2000/svg">
<path d="M1.46172 4.54551L4.35371 1.59166L8.04057 5.30372L10.7585 5.45605L11.8798 6.29787L4.93097 12.1403L4.37204 8.21404L1.46172 4.54551Z" fill="#FECE06"/>
<path d="M5.36015 8.9682L5.54813 8.17171L2.25691 4.48883L4.59496 2.39822L7.88778 6.0804L8.69951 5.98256C9.42007 5.89465 10.1509 6.00814 10.8109 6.31044L5.44932 11.1022C5.22306 10.4127 5.19219 9.6741 5.36015 8.9682ZM8.59065 10.3987L12.7734 15.0765C12.912 15.2316 13.1065 15.3252 13.3142 15.3369C13.5218 15.3485 13.7256 15.2772 13.8807 15.1385C14.0358 14.9999 14.1294 14.8054 14.1411 14.5977C14.1527 14.3901 14.0814 14.1863 13.9428 14.0312L9.76084 9.3535L13.2699 6.2169C12.6805 5.55643 11.9399 5.04847 11.1114 4.73643C10.283 4.42439 9.39131 4.31755 8.5126 4.42503L5.76597 1.35224C5.62867 1.19858 5.46245 1.07348 5.2768 0.984076C5.09114 0.894674 4.88969 0.842723 4.68395 0.831193C4.47822 0.819662 4.27222 0.848776 4.07774 0.916874C3.88326 0.984971 3.7041 1.09072 3.55049 1.22807L1.21162 3.31942C0.901534 3.59669 0.714261 3.98575 0.690984 4.40107C0.667707 4.81639 0.810332 5.22394 1.08749 5.53412L3.83412 8.60691C3.62913 9.46811 3.63567 10.3661 3.85318 11.2243C4.0707 12.0824 4.49272 12.8751 5.08319 13.5347L8.59065 10.3987Z" fill="#0F172A"/>
</svg>
