<svg width="15" height="15" viewBox="0 0 15 15" fill="none" xmlns="http://www.w3.org/2000/svg">
<path d="M7.5 14V8.75C7.5 8.41848 7.6317 8.10054 7.86612 7.86612C8.10054 7.6317 8.41848 7.5 8.75 7.5C9.08152 7.5 9.39946 7.6317 9.63388 7.86612C9.8683 8.10054 10 8.41848 10 8.75V11.5H12C12.5304 11.5 13.0391 11.7107 13.4142 12.0858C13.7893 12.4609 14 12.9696 14 13.5V14" stroke="white" stroke-linecap="round" stroke-linejoin="round"/>
<path d="M6.75739 3.59514C5.51089 2.22345 3.83822 1.31221 2.00977 1.00875C1.88536 0.991132 1.75862 1.00018 1.63798 1.03531C1.51733 1.07043 1.40554 1.13083 1.31003 1.21247C1.2128 1.29563 1.13475 1.39887 1.08123 1.51508C1.02772 1.63128 1.00001 1.75771 1.00002 1.88564V9.01593C0.998688 9.2349 1.07852 9.44661 1.2241 9.61018C1.36968 9.77375 1.57069 9.8776 1.78833 9.90168C3.21644 10.0954 4.55939 10.6605 5.68829 11.5293" stroke="white" stroke-linecap="round" stroke-linejoin="round"/>
<path d="M6.75781 6.3584V3.59521" stroke="white" stroke-linecap="round" stroke-linejoin="round"/>
<path d="M11.7264 9.90168C11.944 9.8776 12.145 9.77375 12.2906 9.61018C12.4362 9.44661 12.516 9.2349 12.5147 9.01593V1.88564C12.5147 1.75771 12.487 1.63128 12.4335 1.51508C12.38 1.39887 12.3019 1.29563 12.2047 1.21247C12.1092 1.13083 11.9974 1.07043 11.8767 1.03531C11.7561 1.00018 11.6294 0.991132 11.5049 1.00875C9.6765 1.31221 8.00383 2.22345 6.75732 3.59514" stroke="white" stroke-linecap="round" stroke-linejoin="round"/>
</svg>
