<svg width="15" height="15" viewBox="0 0 15 15" fill="none" xmlns="http://www.w3.org/2000/svg">
<path d="M9.5 8C11.9853 8 14 7.10457 14 6C14 4.89543 11.9853 4 9.5 4C7.01472 4 5 4.89543 5 6C5 7.10457 7.01472 8 9.5 8Z" stroke="white" stroke-linecap="round" stroke-linejoin="round"/>
<path d="M5 6V12C5 13.1 7 14 9.5 14C12 14 14 13.1 14 12V6" stroke="white" stroke-linecap="round" stroke-linejoin="round"/>
<path d="M14 9C14 10.1 12 11 9.5 11C7 11 5 10.1 5 9" stroke="white" stroke-linecap="round" stroke-linejoin="round"/>
<path d="M9.4 2.00878C8.23149 1.28765 6.87133 0.938892 5.5 1.00878C3.01 1.00878 1 1.90878 1 3.00878C1 3.59878 1.58 4.12878 2.5 4.50878" stroke="white" stroke-linecap="round" stroke-linejoin="round"/>
<path d="M2.5 10.5088C1.58 10.1288 1 9.59879 1 9.00879V3.00879" stroke="white" stroke-linecap="round" stroke-linejoin="round"/>
<path d="M2.5 7.50879C1.58 7.12879 1 6.59879 1 6.00879" stroke="white" stroke-linecap="round" stroke-linejoin="round"/>
</svg>
