<svg width="15" height="12" viewBox="0 0 15 12" fill="none" xmlns="http://www.w3.org/2000/svg">
<path d="M1.5 2C1.77614 2 2 1.77614 2 1.5C2 1.22386 1.77614 1 1.5 1C1.22386 1 1 1.22386 1 1.5C1 1.77614 1.22386 2 1.5 2Z" stroke="black" stroke-linecap="round" stroke-linejoin="round"/>
<path d="M5 1.5H14" stroke="black" stroke-linecap="round" stroke-linejoin="round"/>
<path d="M1.5 6.5C1.77614 6.5 2 6.27614 2 6C2 5.72386 1.77614 5.5 1.5 5.5C1.22386 5.5 1 5.72386 1 6C1 6.27614 1.22386 6.5 1.5 6.5Z" stroke="black" stroke-linecap="round" stroke-linejoin="round"/>
<path d="M5 6H14" stroke="black" stroke-linecap="round" stroke-linejoin="round"/>
<path d="M1.5 11C1.77614 11 2 10.7761 2 10.5C2 10.2239 1.77614 10 1.5 10C1.22386 10 1 10.2239 1 10.5C1 10.7761 1.22386 11 1.5 11Z" stroke="black" stroke-linecap="round" stroke-linejoin="round"/>
<path d="M5 10.5H14" stroke="black" stroke-linecap="round" stroke-linejoin="round"/>
</svg>
