<svg width="15" height="16" viewBox="0 0 15 16" fill="none" xmlns="http://www.w3.org/2000/svg">
<rect width="15" height="16" fill="#FECE06"/>
<path d="M10.953 12H8.841L5.42 6.06H5.376C5.38333 6.24333 5.39067 6.43033 5.398 6.621C5.40533 6.80433 5.41267 6.99133 5.42 7.182C5.43467 7.36533 5.44567 7.55233 5.453 7.743C5.46033 7.92633 5.46767 8.11333 5.475 8.304V12H3.99V4.146H6.091L9.501 10.031H9.534C9.52667 9.84767 9.51933 9.668 9.512 9.492C9.50467 9.30867 9.49733 9.129 9.49 8.953C9.49 8.76967 9.48633 8.59 9.479 8.414C9.47167 8.23067 9.46433 8.04733 9.457 7.864V4.146H10.953V12Z" fill="black"/>
</svg>
